<?xml version="1.0" encoding="UTF-8"?>
<svg xmlns="http://www.w3.org/2000/svg" xmlns:xlink="http://www.w3.org/1999/xlink" width="36px" height="36px" viewBox="0 0 36 35" version="1.1">
<g id="surface1">
<path style=" stroke:none;fill-rule:nonzero;fill:rgb(0%,0%,0%);fill-opacity:1;" d="M 18 34.5625 C 27.378906 34.5625 35.3125 26.921875 35.3125 17.5 C 35.3125 8.074219 27.378906 0.4375 18 0.4375 C 8.617188 0.4375 0.6875 8.078125 0.6875 17.5 C 0.6875 26.917969 8.621094 34.5625 18 34.5625 "/>
<path style=" stroke:none;fill-rule:nonzero;fill:rgb(0%,95.294118%,68.235294%);fill-opacity:1;" d="M 18 35 C 8.144531 35 0.125 27.148438 0.125 17.5 C 0.125 7.847656 8.144531 0 18 0 C 27.851562 0 35.875 7.847656 35.875 17.5 C 35.875 27.148438 27.855469 35 18 35 Z M 18 0.875 C 8.632812 0.875 1.019531 8.332031 1.019531 17.5 C 1.019531 26.664062 8.636719 34.125 18 34.125 C 27.367188 34.125 34.984375 26.667969 34.984375 17.5 C 34.984375 8.328125 27.367188 0.875 18 0.875 Z M 18 0.875 "/>
<path style=" stroke:none;fill-rule:nonzero;fill:rgb(0%,94.901961%,67.843137%);fill-opacity:1;" d="M 17.410156 5.597656 L 26.753906 14.082031 C 26.742188 14.121094 26.738281 14.15625 26.738281 14.195312 C 26.738281 14.519531 27.019531 14.785156 27.363281 14.785156 C 27.703125 14.785156 27.984375 14.519531 27.984375 14.195312 C 27.984375 13.867188 27.703125 13.605469 27.363281 13.605469 C 27.328125 13.605469 27.285156 13.609375 27.246094 13.617188 L 17.789062 5.027344 C 17.722656 4.96875 17.636719 4.9375 17.546875 4.9375 L 13.175781 4.9375 C 13.082031 4.9375 12.996094 4.96875 12.929688 5.03125 L 8.21875 9.425781 C 8.152344 9.488281 8.113281 9.574219 8.113281 9.664062 L 8.113281 11.925781 L 3.558594 16.003906 C 3.511719 15.996094 3.464844 15.988281 3.417969 15.988281 C 3.078125 15.988281 2.796875 16.253906 2.796875 16.578125 C 2.796875 16.90625 3.078125 17.167969 3.417969 17.167969 C 3.761719 17.167969 4.042969 16.90625 4.042969 16.578125 C 4.042969 16.550781 4.042969 16.519531 4.03125 16.488281 L 8.695312 12.308594 C 8.765625 12.25 8.804688 12.160156 8.804688 12.070312 L 8.804688 9.800781 L 13.3125 5.59375 L 17.402344 5.59375 Z M 17.410156 5.597656 "/>
<path style=" stroke:none;fill-rule:nonzero;fill:rgb(0%,94.901961%,67.843137%);fill-opacity:1;" d="M 32.253906 14.273438 C 32.253906 14.183594 32.214844 14.101562 32.152344 14.042969 L 22.824219 5.257812 C 22.757812 5.195312 22.675781 5.164062 22.582031 5.164062 L 20.605469 5.164062 C 20.496094 4.972656 20.289062 4.851562 20.058594 4.851562 C 19.71875 4.851562 19.4375 5.117188 19.4375 5.441406 C 19.4375 5.769531 19.71875 6.03125 20.058594 6.03125 C 20.242188 6.03125 20.414062 5.953125 20.535156 5.820312 L 22.4375 5.820312 L 31.5625 14.414062 L 31.582031 18.214844 L 30.453125 19.328125 L 22.992188 19.328125 L 15.109375 11.863281 C 15.113281 11.835938 15.117188 11.808594 15.117188 11.78125 C 15.117188 11.457031 14.835938 11.191406 14.496094 11.191406 C 14.152344 11.191406 13.871094 11.457031 13.871094 11.78125 C 13.871094 12.152344 14.230469 12.457031 14.644531 12.351562 L 22.605469 19.890625 C 22.671875 19.953125 22.757812 19.988281 22.851562 19.988281 L 30.601562 19.988281 C 30.699219 19.988281 30.785156 19.953125 30.851562 19.886719 L 32.179688 18.578125 C 32.242188 18.515625 32.277344 18.433594 32.273438 18.347656 Z M 32.253906 14.273438 "/>
<path style=" stroke:none;fill-rule:nonzero;fill:rgb(0%,94.901961%,67.843137%);fill-opacity:1;" d="M 29.003906 21.347656 L 21.605469 21.347656 L 15.261719 15.375 C 15.273438 15.332031 15.277344 15.289062 15.277344 15.25 C 15.277344 14.925781 15 14.660156 14.65625 14.660156 C 14.3125 14.660156 14.035156 14.925781 14.035156 15.25 C 14.035156 15.578125 14.3125 15.839844 14.65625 15.839844 C 14.6875 15.839844 14.726562 15.839844 14.761719 15.832031 L 21.21875 21.914062 C 21.285156 21.976562 21.371094 22.007812 21.460938 22.007812 L 28.164062 22.007812 L 25.460938 24.566406 L 21 24.566406 L 14.882812 18.789062 C 14.898438 18.738281 14.90625 18.6875 14.90625 18.640625 C 14.90625 18.3125 14.625 18.050781 14.285156 18.050781 C 13.941406 18.050781 13.660156 18.3125 13.660156 18.640625 C 13.660156 18.988281 13.984375 19.269531 14.359375 19.226562 L 20.613281 25.128906 C 20.679688 25.191406 20.765625 25.222656 20.855469 25.222656 L 25.605469 25.222656 C 25.695312 25.222656 25.785156 25.191406 25.851562 25.125 L 29.25 21.90625 C 29.347656 21.8125 29.378906 21.671875 29.324219 21.546875 C 29.273438 21.425781 29.144531 21.34375 29.003906 21.34375 "/>
<path style=" stroke:none;fill-rule:nonzero;fill:rgb(0%,94.901961%,67.843137%);fill-opacity:1;" d="M 11.355469 19.710938 L 11.355469 10.085938 L 14.113281 7.472656 L 16.726562 7.472656 L 18.808594 9.449219 L 16.777344 9.449219 C 16.664062 9.277344 16.46875 9.167969 16.25 9.167969 C 15.90625 9.167969 15.628906 9.433594 15.628906 9.761719 C 15.628906 10.085938 15.90625 10.351562 16.25 10.351562 C 16.449219 10.351562 16.632812 10.261719 16.75 10.109375 L 19.648438 10.109375 C 19.789062 10.109375 19.914062 10.03125 19.96875 9.90625 C 20.023438 9.78125 19.992188 9.644531 19.890625 9.546875 L 17.113281 6.910156 C 17.046875 6.847656 16.957031 6.8125 16.867188 6.8125 L 13.964844 6.8125 C 13.871094 6.8125 13.785156 6.847656 13.71875 6.910156 L 10.753906 9.714844 C 10.6875 9.777344 10.652344 9.859375 10.652344 9.949219 L 10.652344 19.847656 C 10.652344 19.9375 10.6875 20.023438 10.753906 20.085938 L 16.089844 25.152344 L 13.363281 27.769531 C 13.296875 27.832031 13.261719 27.914062 13.261719 28.003906 L 13.261719 29.589844 C 13.140625 29.675781 13.054688 29.796875 13.027344 29.933594 C 12.96875 30.171875 13.070312 30.410156 13.277344 30.546875 C 13.386719 30.621094 13.507812 30.65625 13.632812 30.65625 C 13.757812 30.65625 13.890625 30.621094 14.015625 30.546875 C 14.066406 30.515625 14.109375 30.472656 14.144531 30.425781 C 14.25 30.257812 14.285156 30.074219 14.234375 29.90625 C 14.191406 29.761719 14.09375 29.640625 13.960938 29.5625 L 13.960938 28.136719 L 16.832031 25.375 C 16.96875 25.25 16.964844 25.039062 16.832031 24.910156 Z M 11.355469 19.710938 "/>
</g>
</svg>
