<svg xmlns="http://www.w3.org/2000/svg" id="Layer_1" viewBox="0 0 458.85 109.8" style="transition: color 0.5s ease-in-out;" color="var(--text-main)"><defs><style>.cls-1{fill:#00f2ad;fill-rule:evenodd;}</style></defs><path d="M129.5 26.4v5.37h7.54v16.5H126.1v5.37h13.3l3.74-3.15V26.4h-13.65Zm36.51 0v21.87h-12.32V26.4h-6.11v21.87l6.11 5.37h12.32l6.11-5.37V26.4h-6.11Zm16.65 5.37h12.32v5.52h-12.32v-5.52Zm-6.11-5.37v27.24h6.11V42.65h8.28l3.69 6.06v4.93h6.11v-5.37l-3.4-5.62 3.74-3.15v-9.95l-3.74-3.15h-20.79Zm38.83 7.24h.79l2.71 6.95h-6.16l2.66-6.95Zm-2.76-7.24-9.06 21.87v5.37h6.11v-4.93l1.03-2.76h10.25l1.03 2.76v4.93h6.11v-5.37l-9.21-21.87h-6.26Zm37.83 0v13.84L239.17 26.4h-7.14v27.24h6.11V33.93l12.32 14.88v4.83h6.11V26.4h-6.11Zm17.05 5.37h12.32v16.5H267.5v-16.5Zm-2.32-5.37-3.79 3.15v20.94l3.79 3.15h17l3.74-3.15V29.55l-3.74-3.15h-17Zm31.3 0-6.06 5.37v8.33l18.38 4.09v4.09h-17.93v5.37h17.93l6.16-5.37V40.2l-18.47-4.14v-4.29h17.98V26.4h-17.98Zm34.22 7.24h.79l2.71 6.95h-6.16l2.66-6.95Zm-2.76-7.24-9.06 21.87v5.37h6.11v-4.93l1.03-2.76h10.25l1.03 2.76v4.93h6.11v-5.37L334.2 26.4h-6.26Zm37.83 0v21.87h-12.32V26.4h-6.11v21.87l6.11 5.37h12.32l6.11-5.37V26.4h-6.11Zm16.65 5.37h12.32v5.52h-12.32v-5.52Zm-6.11-5.37v27.24h6.11V42.65h8.28l3.69 6.06v4.93h6.11v-5.37l-3.4-5.62 3.74-3.15v-9.95l-3.74-3.15h-20.79Zm47.4 0v21.87h-12.32V26.4h-6.11v21.87l6.11 5.37h12.32l6.11-5.37V26.4h-6.11Zm16.65 0-6.06 5.37v8.33l18.38 4.09v4.09h-17.93v5.37h17.93l6.16-5.37V40.2l-18.47-4.14v-4.29h17.98V26.4h-17.98Z" class="cls-1"/><path d="M226.4 80.25v4.01h-14.17v3.55h14.17l4.08-3.55v-6.64l-14.58-3.4v-3.97h14.2V66.7h-14.2l-4.05 3.55v6.64l14.55 3.36Zm-32.76 7.56v-9.13h10.5v9.13h4.05V66.7h-4.05v8.4h-10.5v-8.4h-4.05v21.11h4.05Zm-26.3-2.18 2.52 2.18h13.52l2.56-2.18v-5.35h-4.05v3.97h-10.5V70.28h10.5v4.35h4.05v-5.77l-2.56-2.18H169.9l-2.56 2.18v16.76ZM152.1 74.98v-4.73h11.57V66.7h-15.62v8.28l-.04 3.55.04 9.28h15.62v-3.55H152.1v-5.73h9.05v-3.55h-9.05Zm-25.16-8.28v3.55h6.68v17.56h4.05V70.25h6.72V66.7h-17.45Z" fill="currentColor" fill-rule="evenodd" /><path d="M54.27 108.44c29.57 0 53.53-23.97 53.53-53.53S83.84 1.37 54.27 1.37.74 25.34.74 54.9s23.97 53.53 53.53 53.53"/><path d="M54.9 2.74c-28.76 0-52.16 23.4-52.16 52.16s23.4 52.17 52.17 52.17 52.17-23.4 52.17-52.17S83.67 2.74 54.9 2.74m0 107.07C24.63 109.8 0 85.18 0 54.9S24.63 0 54.9 0s54.9 24.63 54.9 54.9-24.63 54.9-54.9 54.9" class="cls-1"/><path d="m53.08 16.94 28.71 26.62c-.03.12-.04.24-.04.35 0 1.02.86 1.85 1.91 1.85s1.91-.83 1.91-1.85-.86-1.85-1.91-1.85c-.11 0-.23.01-.35.04L54.25 15.16c-.2-.19-.46-.29-.74-.29H40.08c-.28 0-.55.1-.75.3l-14.47 13.8c-.2.19-.32.46-.32.74v7.11L10.56 49.61c-.15-.04-.29-.05-.43-.05-1.05 0-1.91.83-1.91 1.85s.86 1.85 1.91 1.85 1.91-.83 1.91-1.85c0-.09 0-.18-.03-.28l14.33-13.11c.21-.2.34-.47.34-.75v-7.12l13.84-13.19h12.57Z" class="cls-1"/><path d="M98.7 44.16c0-.27-.12-.54-.32-.73L69.72 15.87c-.2-.19-.47-.3-.75-.3h-6.06c-.33-.6-.97-.98-1.68-.98-1.05 0-1.91.83-1.91 1.85s.86 1.85 1.91 1.85c.56 0 1.09-.25 1.46-.66h5.85l28.03 26.96.06 11.93-3.46 3.49H70.25L46.04 36.59c.01-.09.02-.17.02-.26 0-1.02-.86-1.85-1.91-1.85s-1.91.83-1.91 1.85c0 1.17 1.1 2.11 2.36 1.8l24.45 23.65c.2.2.47.3.75.3h23.81c.29 0 .57-.11.77-.32l4.08-4.11c.19-.19.3-.45.3-.72l-.06-12.78Z" class="cls-1"/><path d="M88.71 66.36H65.98L46.49 47.62c.03-.14.05-.26.05-.39 0-1.02-.86-1.85-1.91-1.85s-1.91.83-1.91 1.85.86 1.85 1.91 1.85c.1 0 .21-.01.32-.03l19.84 19.08c.2.2.47.3.75.3h20.59l-8.3 8.02h-13.7L45.34 58.33c.04-.16.07-.32.07-.47 0-1.02-.86-1.85-1.91-1.85s-1.91.83-1.91 1.85c0 1.09 1 1.97 2.14 1.84l19.21 18.52c.2.19.47.3.75.3h14.58c.29 0 .55-.11.75-.3l10.44-10.1a1 1 0 0 0 .23-1.13c-.17-.39-.55-.64-.99-.64" class="cls-1"/><path d="M34.49 61.23v-30.2l8.47-8.19h8.03l6.4 6.2h-6.24a1.9 1.9 0 0 0-1.62-.88c-1.05 0-1.91.83-1.91 1.85s.86 1.85 1.91 1.85c.61 0 1.18-.28 1.53-.76h8.91c.43 0 .82-.25.99-.64a1 1 0 0 0-.23-1.13l-8.53-8.28c-.2-.19-.47-.3-.75-.3h-8.91c-.28 0-.55.11-.75.3l-9.1 8.8c-.2.19-.31.46-.31.73v31.06c0 .28.11.54.31.73l16.39 15.9-8.38 8.22c-.2.2-.31.45-.31.73v4.98c-.37.26-.63.64-.72 1.07-.17.74.13 1.5.76 1.94.33.23.71.34 1.09.34s.79-.12 1.17-.35c.16-.1.29-.23.39-.38.34-.52.43-1.09.28-1.63a1.88 1.88 0 0 0-.84-1.08v-4.47l8.81-8.65c.41-.4.41-1.06 0-1.46L34.5 61.21Z" class="cls-1"/></svg>

