<?xml version="1.0" encoding="UTF-8"?><svg id="Layer_1" xmlns="http://www.w3.org/2000/svg" viewBox="0 0 108.57 107.33"><defs><style>.cls-1{fill:#00f2ad;}.cls-2{fill:#00f3ae;}</style></defs><path d="M54.28,105.99c28.49,0,52.58-23.43,52.58-52.33S82.77,1.34,54.28,1.34,1.71,24.77,1.71,53.66s24.09,52.33,52.58,52.33"/><path class="cls-2" d="M54.28,107.33C24.35,107.33,0,83.25,0,53.66S24.35,0,54.28,0s54.29,24.07,54.29,53.66-24.35,53.67-54.29,53.67Zm0-104.65C25.84,2.68,2.71,25.55,2.71,53.66s23.14,50.99,51.58,50.99,51.58-22.87,51.58-50.99S82.73,2.68,54.28,2.68Z"/><path class="cls-1" d="M52.49,17.16l28.38,26.02c-.03,.12-.04,.23-.04,.35,0,1,.85,1.81,1.89,1.81s1.89-.81,1.89-1.81-.85-1.81-1.89-1.81c-.11,0-.23,.01-.35,.04L53.64,15.42c-.2-.18-.46-.28-.73-.28h-13.28c-.28,0-.54,.1-.74,.29l-14.31,13.48c-.2,.19-.32,.45-.32,.72v6.94l-13.83,12.51c-.15-.03-.29-.05-.43-.05-1.04,0-1.89,.81-1.89,1.81s.85,1.81,1.89,1.81,1.89-.81,1.89-1.81c0-.09,0-.18-.03-.28l14.17-12.81c.21-.19,.33-.46,.33-.74v-6.96l13.69-12.9h12.42Z"/><path class="cls-1" d="M97.58,43.77c0-.27-.12-.53-.31-.71l-28.33-26.94c-.2-.19-.46-.29-.74-.29h-6c-.33-.58-.96-.95-1.66-.95-1.04,0-1.89,.81-1.89,1.81s.85,1.81,1.89,1.81c.55,0,1.08-.24,1.44-.65h5.78l27.71,26.35,.06,11.66-3.42,3.41h-22.66l-23.94-22.89c.01-.09,.02-.17,.02-.25,0-1-.85-1.81-1.89-1.81s-1.89,.81-1.89,1.81c0,1.14,1.09,2.07,2.34,1.75l24.18,23.12c.2,.19,.46,.3,.75,.3h23.54c.29,0,.56-.11,.76-.31l4.03-4.02c.19-.19,.3-.44,.29-.71l-.06-12.49Z"/><path class="cls-1" d="M87.71,65.47h-22.47l-19.27-18.32c.03-.13,.05-.26,.05-.38,0-1-.85-1.81-1.89-1.81s-1.89,.81-1.89,1.81,.85,1.81,1.89,1.81c.1,0,.21,0,.32-.03l19.61,18.65c.2,.19,.46,.29,.74,.29h20.35l-8.2,7.84h-13.55l-18.58-17.71c.04-.16,.07-.31,.07-.46,0-1-.85-1.81-1.89-1.81s-1.89,.81-1.89,1.81c0,1.07,.98,1.93,2.12,1.8l18.99,18.1c.2,.19,.46,.29,.74,.29h14.42c.28,0,.55-.1,.75-.3l10.32-9.87c.3-.29,.39-.72,.23-1.1-.16-.38-.55-.63-.98-.63"/><path class="cls-1" d="M34.1,60.45V30.93l8.38-8.01h7.94l6.32,6.06h-6.17c-.34-.53-.94-.86-1.6-.86-1.04,0-1.89,.81-1.89,1.81s.85,1.81,1.89,1.81c.6,0,1.16-.27,1.52-.74h8.8c.43,0,.81-.24,.97-.62,.17-.38,.08-.81-.23-1.1l-8.44-8.09c-.2-.19-.47-.3-.75-.3h-8.81c-.28,0-.55,.11-.75,.3l-9,8.6c-.2,.19-.31,.45-.31,.72v30.36c0,.27,.11,.53,.31,.72l16.2,15.54-8.28,8.03c-.2,.19-.31,.44-.31,.71v4.87c-.36,.26-.62,.63-.71,1.05-.17,.73,.13,1.47,.76,1.89,.33,.22,.7,.33,1.08,.33s.78-.11,1.16-.34c.16-.09,.29-.22,.39-.37,.33-.51,.43-1.07,.28-1.59-.13-.44-.43-.82-.83-1.06v-4.37l8.72-8.46c.41-.39,.4-1.04,0-1.43l-16.64-15.95Z"/></svg>